<svg width="24" height="24" viewBox="0 0 24 24" fill="none" xmlns="http://www.w3.org/2000/svg">
<g clip-path="url(#clip0)">
<path d="M0 12C0 15.1926 1.23944 18.1974 3.48981 20.4609C5.73889 22.7227 8.73285 23.9793 11.9213 23.9995C11.9291 23.9995 11.9377 24 11.9456 23.9995C11.9634 24 11.9817 24 12 24C15.2049 24 18.2184 22.7521 20.4849 20.4853C22.7518 18.219 24 15.2053 24 12C24 8.79474 22.7518 5.78156 20.4849 3.51471C18.2184 1.24823 15.2049 0 12 0C11.9817 0 11.9639 0 11.9456 0.000549319C11.9372 0.000549319 11.9288 0.000549319 11.9203 0.000915525C8.7323 0.0216065 5.73853 1.27789 3.48981 3.53961C1.23944 5.80316 0 8.80774 0 12Z" fill="#012B55"/>
<path d="M-6.00858e-05 12C-6.00858e-05 15.1926 1.23938 18.1974 3.48975 20.4609C5.73883 22.7227 8.73279 23.9793 11.9212 23.9995C11.9291 23.9995 11.9377 24 11.9456 23.9995V0.000549316C11.9371 0.000549316 11.9287 0.000549316 11.9203 0.000915523C8.73224 0.0216065 5.73846 1.27789 3.48975 3.53961C1.23938 5.80316 -6.00858e-05 8.80774 -6.00858e-05 12Z" fill="#012B55"/>
<path d="M11.9407 5.05336C11.9211 5.05299 11.9577 5.05336 11.9407 5.05336V5.05336Z" fill="black"/>
<path d="M9.94116 7.05286V12.4171C9.94116 13.5198 10.838 14.4168 11.9405 14.4168H11.9456C12.4607 14.4018 12.9924 14.1938 13.3546 13.8314C13.732 13.4537 13.9402 12.9516 13.9402 12.4171V7.05286C13.9402 5.96246 13.0349 5.08447 11.9456 5.05316H11.9405C10.838 5.05316 9.94116 5.95038 9.94116 7.05286V7.05286Z" fill="white"/>
<path d="M11.9406 14.417C11.9577 14.417 11.9236 14.4173 11.9406 14.417V14.417Z" fill="black"/>
<path d="M10.0481 16.9519C10.0481 17.9958 10.897 18.8447 11.9409 18.8447H11.9456C12.9868 18.8423 13.8333 17.9943 13.8333 16.9519C13.8333 15.9099 12.9868 15.0619 11.9456 15.0595H11.9409C10.897 15.0595 10.0481 15.9084 10.0481 16.9519Z" fill="white"/>
<path d="M10.048 16.9519C10.048 17.9958 10.8969 18.8447 11.9408 18.8447H11.9456V15.0595H11.9408C10.8969 15.0595 10.048 15.9084 10.048 16.9519Z" fill="#DDEBF0"/>
<path d="M9.9411 7.05286V12.4171C9.9411 13.5198 10.838 14.4168 11.9404 14.4168H11.9456V5.05316H11.9404C10.838 5.05316 9.9411 5.95038 9.9411 7.05286V7.05286Z" fill="#DDEBF0"/>
</g>
<defs>
<clipPath id="clip0">
<rect width="24" height="24" transform="matrix(-1 0 0 1 24 0)" fill="white"/>
</clipPath>
</defs>
</svg>
