<svg width="30" height="30" viewBox="0 0 30 30" fill="none" xmlns="http://www.w3.org/2000/svg">
<path d="M25.1812 2.02133H4.78952C2.65749 2.02133 0.922852 3.75563 0.922852 5.888V18.3673C0.922852 20.4948 2.64994 22.2264 4.77579 22.2339V27.8969L12.9141 22.2339H25.1812C27.3132 22.2339 29.0478 20.4993 29.0478 18.3673V5.888C29.0478 3.75563 27.3132 2.02133 25.1812 2.02133V2.02133ZM27.3999 18.3673C27.3999 19.5905 26.4046 20.586 25.1812 20.586H12.397L6.42374 24.7426V20.586H4.78952C3.56609 20.586 2.5708 19.5905 2.5708 18.3673V5.888C2.5708 4.6644 3.56609 3.66928 4.78952 3.66928H25.1812C26.4046 3.66928 27.3999 4.6644 27.3999 5.888V18.3673Z" fill="#012B55"/>
<path d="M8.45032 7.84448H21.5203V9.49239H8.45032V7.84448Z" fill="#012B55"/>
<path d="M8.45032 11.3601H21.5203V13.008H8.45032V11.3601Z" fill="#012B55"/>
<path d="M8.45032 14.8757H21.5203V16.5239H8.45032V14.8757Z" fill="#012B55"/>
</svg>
