<svg width="27" height="27" viewBox="0 0 27 27" fill="none" xmlns="http://www.w3.org/2000/svg">
<path d="M24.6698 22.7734L22.7382 19.5536C21.8461 18.0675 21.3747 16.3654 21.3747 14.6329V11.8125C21.3747 8.25188 18.9987 5.24027 15.7497 4.26937V2.25002C15.7497 1.00912 14.7406 0 13.4997 0C12.2588 0 11.2497 1.00912 11.2497 2.25002V4.26937C8.00069 5.24027 5.62469 8.25188 5.62469 11.8125V14.6329C5.62469 16.3654 5.1533 18.0664 4.2623 19.5525L2.33069 22.7723C2.22606 22.9467 2.2238 23.1627 2.32394 23.3393C2.42408 23.5159 2.60971 23.6251 2.81221 23.6251H24.1872C24.3897 23.6251 24.5764 23.5159 24.6766 23.3404C24.7767 23.1649 24.7733 22.9466 24.6698 22.7734Z" fill="#012B55"/>
<path d="M9.95703 24.75C10.5915 26.0753 11.9348 27 13.4996 27C15.0645 27 16.4078 26.0753 17.0423 24.75H9.95703V24.75Z" fill="#012B55"/>
</svg>
